<svg id="Ebene_1" data-name="Ebene 1" xmlns="http://www.w3.org/2000/svg" xmlns:xlink="http://www.w3.org/1999/xlink" viewBox="0 0 207.7 40.97"><defs><style>.cls-1{fill:none;}.cls-2{fill:#1d1d1b;}.cls-3{clip-path:url(#clip-path);}.cls-4{fill:#cd1719;}.cls-5{fill:#fff;}</style><clipPath id="clip-path" transform="translate(-186.83 -400.47)"><rect class="cls-1" x="186.83" y="400.47" width="208.86" height="40.97"/></clipPath></defs><path class="cls-2" d="M246.22,424.25c0,4.67-2.45,5.6-5.05,5.6-2.76,0-4.58-1.17-5.18-3.93l3.42-.67c.18.84.67,1.87,1.78,1.87s1.56-.76,1.56-2.23V412.28h3.47Z" transform="translate(-186.83 -400.47)"/><path class="cls-2" d="M250.29,429.59V412.28h5c5.61,0,7,2,7,4.76a3.89,3.89,0,0,1-2.18,3.58,4.33,4.33,0,0,1,2.51,4c0,3-2.42,5-5.58,5Zm3.47-10.28c2.56,0,5,.29,5-2.09s-2.54-2.2-5-2.2Zm2.24,7.54c1.05,0,3.07.14,3.07-2.49,0-2.36-1.95-2.67-5.31-2.42v4.91Z" transform="translate(-186.83 -400.47)"/><path class="cls-2" d="M274.53,417.37c-.33-1.2-1-2.42-2.4-2.42a2,2,0,0,0-2.12,2c0,3.41,8.15,1.18,8.15,7.63,0,2.12-1.6,5.27-5.88,5.27-3.29,0-5.67-1.6-6.2-5l3.47-.51c.31,1.47,1.07,2.56,2.71,2.56a2.2,2.2,0,0,0,2.49-2.2c0-3.47-8.14-1.47-8.14-7.37a5.46,5.46,0,0,1,5.63-5.34,5.19,5.19,0,0,1,5.43,4.81Z" transform="translate(-186.83 -400.47)"/><g class="cls-3"><path class="cls-2" d="M287.27,429.59h-1.82V412.28h2.89l6.9,13.64h0V412.28h1.83v17.31h-1.83l-8-15.73h-.05Z" transform="translate(-186.83 -400.47)"/><path class="cls-2" d="M303.11,423.74c0,3.51,1.49,4.74,3.27,4.74a3.8,3.8,0,0,0,3-2.12l1.25.83a4.71,4.71,0,0,1-4.43,2.75c-2.74,0-4.92-1.89-4.92-6.49s2.18-6.5,4.92-6.5c3.54,0,4.56,3.78,4.31,6.79Zm5.58-1.47c.05-1.58-.8-3.85-2.62-3.85s-2.9,2.11-2.92,3.85Z" transform="translate(-186.83 -400.47)"/><path class="cls-2" d="M324.77,429.59h-1.71l-2.23-9.75h0l-2.29,9.75h-1.76l-3.16-12.28h1.69l2.36,10h0l2.36-10h1.69l2.25,10h0l2.3-10H328Z" transform="translate(-186.83 -400.47)"/><path class="cls-2" d="M336.49,429.59h-1.82V412.28h3l3.78,14.26h.07l3.71-14.26h3.1v17.31h-1.83V413.9h0l-4.23,15.69h-1.49l-4.23-15.69h0Z" transform="translate(-186.83 -400.47)"/><path class="cls-2" d="M354.33,423.74c0,3.51,1.49,4.74,3.27,4.74a3.8,3.8,0,0,0,3-2.12l1.24.83a4.68,4.68,0,0,1-4.42,2.75c-2.74,0-4.92-1.89-4.92-6.49s2.18-6.5,4.92-6.5c3.54,0,4.56,3.78,4.31,6.79Zm5.58-1.47c0-1.58-.8-3.85-2.63-3.85s-2.89,2.11-2.91,3.85Z" transform="translate(-186.83 -400.47)"/><path class="cls-2" d="M373.3,412.28H375v17.31H373.3v-1.4a4,4,0,0,1-3.14,1.75c-1.67,0-4.49-1.53-4.49-6.25s2.44-6.74,4.56-6.74a4.51,4.51,0,0,1,3.07,1.63Zm0,8.16a3.31,3.31,0,0,0-2.87-2c-2.43,0-2.94,3.34-2.94,5.19,0,3.6,1.71,4.78,2.92,4.78s2.4-1.24,2.89-2.29Z" transform="translate(-186.83 -400.47)"/><path class="cls-2" d="M381.3,414.19h-1.73v-1.91h1.73Zm0,15.4h-1.73V417.31h1.73Z" transform="translate(-186.83 -400.47)"/><path class="cls-2" d="M392.65,429.59l-.18-1.56a5.28,5.28,0,0,1-3.56,1.91,3.46,3.46,0,0,1-3.41-3.51c0-3.52,3.7-4.27,6.41-5l.56-.15v-.69a2.09,2.09,0,0,0-2.34-2.16,3.68,3.68,0,0,0-3,1.94l-1.22-.92a5.05,5.05,0,0,1,4.22-2.49,3.85,3.85,0,0,1,4.07,3.83v6.09a7.57,7.57,0,0,0,.34,2.72Zm-.87-6.7c-1.65.49-4.65,1.16-4.65,3.36A2,2,0,0,0,389,428.3a4.84,4.84,0,0,0,3.5-2v-3.6Z" transform="translate(-186.83 -400.47)"/><rect class="cls-4" width="40.97" height="40.97" rx="7.26"/><path class="cls-5" d="M193.15,408l8.85,8.86a2.88,2.88,0,0,0-.21,1.13v.32h-9v-8.68a3.33,3.33,0,0,1,.38-1.63m-.38,15.59h9v.32A3.16,3.16,0,0,0,202,425l-8.86,8.86a4.19,4.19,0,0,1-.4-1.6Zm11.91-5.28H210v5.28h-5.27Zm-1.45,8a2.88,2.88,0,0,0,1.13.21h.32v9H196a3.33,3.33,0,0,1-1.63-.37Zm6.73.21h.32a3.16,3.16,0,0,0,1.1-.24l8.86,8.86a4.07,4.07,0,0,1-1.6.39H210Zm11.53,7.42-8.85-8.86a2.88,2.88,0,0,0,.21-1.13v-.32h9v8.68a3.33,3.33,0,0,1-.37,1.63m.37-15.59h-9V418a3.16,3.16,0,0,0-.24-1.1l8.86-8.86a4.07,4.07,0,0,1,.39,1.6Zm-10.45-2.68a2.88,2.88,0,0,0-1.13-.21H210v-9h8.68a3.33,3.33,0,0,1,1.63.37Zm-6.73-.21h-.32a3.16,3.16,0,0,0-1.1.24l-8.86-8.86a4.07,4.07,0,0,1,1.6-.39h8.68ZM190.52,409v9.32h-1.94v5.28h1.94v9.32s0,4.84,4.84,4.84h9.32v1.94H210v-1.94h9.32s4.84,0,4.84-4.84V423.6h1.94v-5.28h-1.94V409s0-4.84-4.84-4.84H210v-1.94h-5.28v1.94h-9.32s-4.84,0-4.84,4.84" transform="translate(-186.83 -400.47)"/></g></svg>