<svg id="Ebene_1" data-name="Ebene 1" xmlns="http://www.w3.org/2000/svg" xmlns:xlink="http://www.w3.org/1999/xlink" viewBox="0 0 208.75 40.97"><defs><style>.cls-1{fill:none;}.cls-2,.cls-5{font-size:22.24px;fill:#1d1d1b;}.cls-2{font-family:NewsGothicStd-Bold, News Gothic Std;font-weight:700;}.cls-3{letter-spacing:0.08em;}.cls-4{letter-spacing:0.08em;}.cls-5{font-family:NewsGothicStd, News Gothic Std;}.cls-6{letter-spacing:-0.03em;}.cls-7{letter-spacing:0.08em;}.cls-8{letter-spacing:0.08em;}.cls-9{letter-spacing:-0.03em;}.cls-10{clip-path:url(#clip-path);}.cls-11{fill:#cd1719;}.cls-12{fill:#fff;}</style><clipPath id="clip-path" transform="translate(-181.98 -400.47)"><rect class="cls-1" x="181.98" y="400.47" width="232.01" height="40.97"/></clipPath></defs><text class="cls-2" transform="translate(49.15 29.11)"><tspan class="cls-3">J</tspan><tspan class="cls-4" x="13.1" y="0">B</tspan><tspan x="29.27" y="0">S</tspan></text><text class="cls-5" transform="translate(91.5 29.11)"><tspan class="cls-6"> </tspan><tspan class="cls-7" x="5.74" y="0">N</tspan><tspan class="cls-8" x="21.93" y="0">e</tspan><tspan class="cls-9" x="35.07" y="0">w</tspan><tspan class="cls-6" x="49.22" y="0"> </tspan><tspan class="cls-7" x="54.95" y="0">M</tspan><tspan class="cls-3" x="73.17" y="0">e</tspan><tspan class="cls-4" x="86.31" y="0">di</tspan><tspan x="106.13" y="0">a</tspan></text><g class="cls-10"><path class="cls-11" d="M189.24,400.47a7.26,7.26,0,0,0-7.26,7.26v26.46a7.25,7.25,0,0,0,7.26,7.25H215.7a7.25,7.25,0,0,0,7.25-7.25V407.73a7.26,7.26,0,0,0-7.25-7.26H189.24" transform="translate(-181.98 -400.47)"/><path class="cls-12" d="M188.29,408l8.86,8.86a2.88,2.88,0,0,0-.21,1.13v.32h-9v-8.68a3.45,3.45,0,0,1,.37-1.63m-.37,15.59h9v.32a3.16,3.16,0,0,0,.24,1.1l-8.86,8.86a4,4,0,0,1-.4-1.6Zm11.91-5.28h5.27v5.28h-5.27Zm-1.45,8a2.88,2.88,0,0,0,1.13.21h.32v9h-8.69a3.32,3.32,0,0,1-1.62-.37Zm6.72.21h.33a3.2,3.2,0,0,0,1.1-.24l8.86,8.86a4.07,4.07,0,0,1-1.6.39H205.1Zm11.54,7.42-8.86-8.86a2.71,2.71,0,0,0,.22-1.13v-.32h9v8.68a3.33,3.33,0,0,1-.37,1.63m.37-15.59h-9V418a3.16,3.16,0,0,0-.24-1.1l8.86-8.86a4.07,4.07,0,0,1,.39,1.6Zm-10.45-2.68a2.88,2.88,0,0,0-1.13-.21h-.33v-9h8.69a3.36,3.36,0,0,1,1.63.37Zm-6.73-.21h-.32a3.23,3.23,0,0,0-1.11.24l-8.85-8.86a4,4,0,0,1,1.59-.39h8.69ZM185.67,409v9.32h-1.94v5.28h1.94v9.32s0,4.84,4.84,4.84h9.32v1.94h5.27v-1.94h9.33s4.84,0,4.84-4.84V423.6h1.94v-5.28h-1.94V409s0-4.84-4.84-4.84H205.1v-1.94h-5.27v1.94h-9.32s-4.84,0-4.84,4.84" transform="translate(-181.98 -400.47)"/></g></svg>